<?xml version="1.0" encoding="utf-8"?>
<!-- Generator: Adobe Illustrator 24.0.1, SVG Export Plug-In . SVG Version: 6.00 Build 0)  -->
<svg version="1.1" id="Layer_1" xmlns="http://www.w3.org/2000/svg" xmlns:xlink="http://www.w3.org/1999/xlink" x="0px" y="0px"
	 viewBox="0 0 30 30" style="enable-background:new 0 0 30 30;" xml:space="preserve">
<style type="text/css">
	.st0{display:none;fill:#0B1130;}
	.st1{display:none;}
	.st2{display:inline;fill-rule:evenodd;clip-rule:evenodd;fill:#FFFFFF;}
	.st3{display:inline;fill:#FFFFFF;}
	.st4{display:inline;}
	.st5{fill-rule:evenodd;clip-rule:evenodd;fill:#FFFFFF;}
	.st6{fill:#FFFFFF;}
	.st7{filter:url(#Adobe_OpacityMaskFilter);}
	.st8{filter:url(#Adobe_OpacityMaskFilter_1_);}
	.st9{mask:url(#SVGID_1_);fill-rule:evenodd;clip-rule:evenodd;fill:url(#SVGID_2_);}
	.st10{fill-rule:evenodd;clip-rule:evenodd;fill:url(#SVGID_3_);}
	.st11{filter:url(#Adobe_OpacityMaskFilter_2_);}
	.st12{filter:url(#Adobe_OpacityMaskFilter_3_);}
	.st13{mask:url(#SVGID_4_);fill-rule:evenodd;clip-rule:evenodd;fill:url(#SVGID_5_);}
	.st14{fill-rule:evenodd;clip-rule:evenodd;fill:url(#SVGID_6_);}
	.st15{filter:url(#Adobe_OpacityMaskFilter_4_);}
	.st16{filter:url(#Adobe_OpacityMaskFilter_5_);}
	.st17{mask:url(#SVGID_7_);fill-rule:evenodd;clip-rule:evenodd;fill:url(#SVGID_8_);}
	.st18{fill-rule:evenodd;clip-rule:evenodd;fill:url(#SVGID_9_);}
	.st19{filter:url(#Adobe_OpacityMaskFilter_6_);}
	.st20{filter:url(#Adobe_OpacityMaskFilter_7_);}
	.st21{mask:url(#SVGID_10_);fill-rule:evenodd;clip-rule:evenodd;fill:url(#SVGID_11_);}
	.st22{fill-rule:evenodd;clip-rule:evenodd;fill:url(#SVGID_12_);}
	.st23{filter:url(#Adobe_OpacityMaskFilter_8_);}
	.st24{filter:url(#Adobe_OpacityMaskFilter_9_);}
	.st25{mask:url(#SVGID_13_);fill-rule:evenodd;clip-rule:evenodd;fill:url(#SVGID_14_);}
	.st26{fill-rule:evenodd;clip-rule:evenodd;fill:url(#SVGID_15_);}
	.st27{filter:url(#Adobe_OpacityMaskFilter_10_);}
	.st28{filter:url(#Adobe_OpacityMaskFilter_11_);}
	.st29{mask:url(#SVGID_16_);fill-rule:evenodd;clip-rule:evenodd;fill:url(#SVGID_17_);}
	.st30{fill-rule:evenodd;clip-rule:evenodd;fill:url(#SVGID_18_);}
	.st31{filter:url(#Adobe_OpacityMaskFilter_12_);}
	.st32{filter:url(#Adobe_OpacityMaskFilter_13_);}
	.st33{mask:url(#SVGID_19_);fill-rule:evenodd;clip-rule:evenodd;fill:url(#SVGID_20_);}
	.st34{fill-rule:evenodd;clip-rule:evenodd;fill:url(#SVGID_21_);}
	.st35{filter:url(#Adobe_OpacityMaskFilter_14_);}
	.st36{filter:url(#Adobe_OpacityMaskFilter_15_);}
	.st37{mask:url(#SVGID_22_);fill-rule:evenodd;clip-rule:evenodd;fill:url(#SVGID_23_);}
	.st38{fill-rule:evenodd;clip-rule:evenodd;fill:url(#SVGID_24_);}
	.st39{filter:url(#Adobe_OpacityMaskFilter_16_);}
	.st40{filter:url(#Adobe_OpacityMaskFilter_17_);}
	.st41{mask:url(#SVGID_25_);fill-rule:evenodd;clip-rule:evenodd;fill:url(#SVGID_26_);}
	.st42{fill-rule:evenodd;clip-rule:evenodd;fill:url(#SVGID_27_);}
	.st43{fill-rule:evenodd;clip-rule:evenodd;fill:#0B1130;}
	.st44{fill:#0B1130;}
	.st45{display:inline;fill:#0B1130;}
	.st46{display:inline;fill:#1435C1;}
	.st47{display:inline;fill:url(#SVGID_28_);}
	.st48{display:inline;fill:url(#SVGID_29_);}
	.st49{display:inline;fill:url(#SVGID_30_);}
	.st50{fill:url(#SVGID_31_);}
	.st51{fill:url(#SVGID_32_);}
	.st52{fill:url(#SVGID_33_);}
	.st53{fill:url(#SVGID_34_);}
	.st54{fill:url(#SVGID_35_);}
	.st55{fill:url(#SVGID_36_);}
	.st56{fill:url(#SVGID_37_);}
	.st57{fill:url(#SVGID_38_);}
	.st58{fill:url(#SVGID_39_);}
</style>
<linearGradient id="SVGID_1_" gradientUnits="userSpaceOnUse" x1="15" y1="0" x2="15" y2="29.7639">
	<stop  offset="0" style="stop-color:#00DEC4"/>
	<stop  offset="1" style="stop-color:#00479B"/>
</linearGradient>
<path style="fill:url(#SVGID_1_);" d="M15,0C6.73,0,0,6.73,0,15c0,8.27,6.73,15,15,15s15-6.73,15-15C30,6.73,23.27,0,15,0z
	 M24.83,20.03h-0.77c-0.19,0-0.37,0-0.56,0h-0.01c-0.19,0-0.37,0-0.56,0h-0.02c-0.3,0-0.6,0-0.9,0c-0.3,0-0.61,0-0.91,0
	c-0.49,0-0.83,0.23-1.03,0.69c-0.05,0.11-0.07,0.26-0.07,0.45c-0.01,0.51-0.01,1.02-0.01,1.52v0.25c0,0.37,0,0.75,0,1.13v0.77h-10
	v-0.79c0-0.37,0-0.74,0-1.11c0-0.84,0.01-1.6-0.01-2.37c-0.01-0.36,0.01-0.71,0.06-1.05c0.06-0.75,0.37-1.46,0.42-1.55
	c0.4-0.94,1.05-1.78,1.94-2.5c0.57-0.46,1.18-0.86,1.78-1.26c0.19-0.13,0.39-0.26,0.58-0.39c0.65-0.44,1.32-0.9,1.88-1.48
	c0.21-0.22,0.39-0.45,0.54-0.7c0.23-0.38,0.39-0.81,0.47-1.26c0.04-0.2,0.06-0.43,0.06-0.65c0.01-0.59,0.01-1.2,0-1.78
	c0-0.16,0-0.33,0-0.5h-5.1V7.46h-0.32c0,0.19,0,0.38,0,0.57c0,0.35,0,0.71,0,1.07c-0.02,1.78-1.48,3.22-3.26,3.22H7.5v2.65H7.49
	v2.75h2.4l-0.13,0.27L9.6,18.34c0,0.01-0.3,0.64-0.34,1.27l-0.02,0.23l-0.01,0.17H5.19v-5.05H5.18v-4.95h0.82c0.36,0,0.71,0,1.07,0
	l0.6,0h0.59c0.2,0,0.4,0,0.59,0c0.73,0,1.14-0.41,1.14-1.14c0-0.45,0-0.91,0-1.36V7.49l0-0.46l0-1.07V5.15H20v1.88
	c0,0.84,0,1.7,0.01,2.55v0.08c0,0.29-0.02,0.58-0.05,0.87l-0.02,0.19h-0.01c-0.05,0.26-0.15,0.77-0.36,1.33l0,0.01l0,0
	c-0.43,1.08-1.2,2.03-2.26,2.82c-0.45,0.33-0.93,0.65-1.38,0.95c-0.41,0.27-0.83,0.55-1.23,0.84c-0.53,0.38-1,0.78-1.4,1.19
	c-0.17,0.17-0.32,0.35-0.44,0.55c-0.25,0.38-0.42,0.8-0.5,1.26c-0.04,0.23-0.06,0.46-0.06,0.69c0,0.5,0,1.01,0,1.5v0.01
	c0,0.22,0,0.43,0,0.65h5.1v0h0.29v-1.45c0-1.65,1.21-3.06,2.82-3.28c0.44-0.06,0.88-0.06,1.26-0.06c0.07,0,0.15,0,0.22,0h0.22
	c0.12,0,0.22,0,0.31,0v-0.3h-0.01v-5.1h-2.32l0.09-0.25l0.12-0.33c0.25-0.68,0.34-1.31,0.34-1.32l0.03-0.22l0.02-0.16h4.05V20.03z"
	/>
</svg>
